<svg width="512" height="512" viewBox="0 0 512 512" fill="none" xmlns="http://www.w3.org/2000/svg">
  <rect width="512" height="512" rx="128" fill="#090D16"/>
  <circle cx="256" cy="256" r="198" fill="url(#aura)" opacity="0.34"/>
  <rect x="48" y="48" width="416" height="416" rx="104" stroke="url(#gold)" stroke-width="8" stroke-opacity="0.82"/>
  <path d="M256 96L368 160V262C368 331 323 382 256 406C189 382 144 331 144 262V160L256 96Z" fill="url(#gold)" fill-opacity="0.16" stroke="url(#gold)" stroke-width="13"/>
  <path d="M203 230H309M224 230L184 315H264L224 230ZM288 230L248 315H328L288 230ZM256 174V358" stroke="#FFF7D6" stroke-width="13" stroke-linecap="round" stroke-linejoin="round"/>
  <defs>
    <radialGradient id="aura" cx="0" cy="0" r="1" gradientUnits="userSpaceOnUse" gradientTransform="translate(256 256) rotate(90) scale(198)">
      <stop stop-color="#F7E7B4"/>
      <stop offset="1" stop-color="#090D16" stop-opacity="0"/>
    </radialGradient>
    <linearGradient id="gold" x1="91" y1="64" x2="427" y2="456" gradientUnits="userSpaceOnUse">
      <stop stop-color="#FFF7D6"/>
      <stop offset="0.45" stop-color="#D6A84F"/>
      <stop offset="1" stop-color="#8A641C"/>
    </linearGradient>
  </defs>
</svg>
