<svg width="192" height="192" viewBox="0 0 192 192" fill="none" xmlns="http://www.w3.org/2000/svg">
  <rect width="192" height="192" rx="48" fill="#090D16"/>
  <circle cx="96" cy="96" r="72" fill="url(#aura)" opacity="0.34"/>
  <rect x="18" y="18" width="156" height="156" rx="39" stroke="url(#gold)" stroke-width="3" stroke-opacity="0.8"/>
  <path d="M96 36L138 60V98C138 124 121 143 96 152C71 143 54 124 54 98V60L96 36Z" fill="url(#gold)" fill-opacity="0.16" stroke="url(#gold)" stroke-width="5"/>
  <path d="M76 86H116M84 86L69 118H99L84 86ZM108 86L93 118H123L108 86ZM96 65V134" stroke="#FFF7D6" stroke-width="5" stroke-linecap="round" stroke-linejoin="round"/>
  <defs>
    <radialGradient id="aura" cx="0" cy="0" r="1" gradientUnits="userSpaceOnUse" gradientTransform="translate(96 96) rotate(90) scale(72)">
      <stop stop-color="#F7E7B4"/>
      <stop offset="1" stop-color="#090D16" stop-opacity="0"/>
    </radialGradient>
    <linearGradient id="gold" x1="34" y1="24" x2="160" y2="171" gradientUnits="userSpaceOnUse">
      <stop stop-color="#FFF7D6"/>
      <stop offset="0.45" stop-color="#D6A84F"/>
      <stop offset="1" stop-color="#8A641C"/>
    </linearGradient>
  </defs>
</svg>
